<svg xmlns="http://www.w3.org/2000/svg" xmlns:xlink="http://www.w3.org/1999/xlink" viewBox="0 0 572.65 201.69"><defs><style>.cls-1{fill:url(#linear-gradient);}.cls-2,.cls-4{fill:#051d67;}.cls-3{fill:#5ee587;}.cls-4{font-size:21.83px;font-family:HarabaraMaisBold-HarabaraMaisBold, Harabara Mais Demo;font-weight:700;letter-spacing:0.22em;}.cls-5{letter-spacing:0.19em;}.cls-6{letter-spacing:0.2em;}.cls-7{letter-spacing:0.24em;}.cls-8{letter-spacing:0.22em;}</style><linearGradient id="linear-gradient" x1="83.97" y1="32.14" x2="113.79" y2="154.96" gradientUnits="userSpaceOnUse"><stop offset="0" stop-color="#051d67"/><stop offset="1" stop-color="#5ee587"/></linearGradient></defs><g id="Layer_2" data-name="Layer 2"><g id="Layer_1-2" data-name="Layer 1"><path d="M121.11,107.6c.19,2.79.45,5.55.85,8.27C121.71,113.11,121.46,110.35,121.11,107.6Z"/><path class="cls-1" d="M150.12,153.05a14.63,14.63,0,0,1-3.31,3,23.39,23.39,0,0,1-4.55,2.39,35.13,35.13,0,0,1-6.95,2c-13.86,2.5-36.47.46-44.8-12.58-4.73-7.38-5.08-16.78-6.3-25.2-.65-4.5-1.24-9-1.81-13.52s-1.13-9.07-1.74-13.6c-.93-7-1.9-14-3.09-21,0-.18-.07-.39-.12-.64h0c-.67-3.7-3-14.79-4.17-19.08q-.06-.21-.12-.39c0-.13-.07-.25-.1-.36-.4-1.26-.85-2.62-1.37-4-1.2-3.11-2.82-6.23-5.24-8.22A13.57,13.57,0,0,0,59.38,39C53,38.32,48.44,42.88,47.6,43.8c0,0,0,0,0,0s0,0,0,0h0c.63-.94,1.2-1.73,1.66-2.33s.77-1,1.2-1.5a19,19,0,0,1,2.08-1.94,17.86,17.86,0,0,1,2.15-1.53A21.05,21.05,0,0,1,57.77,35a26.83,26.83,0,0,1,5.51-1.55,41.34,41.34,0,0,1,4.78-.61,68.39,68.39,0,0,1,10,0c9,.55,18.84,2.25,26.44,7.35a17.54,17.54,0,0,1,3.6,3.19c2.32,2.7,3.36,5.95,4.29,9.32,6.68,24.22,7.45,49.3,10.65,74.08,1.14,8.82,3.22,18.65,10.64,24.42a13.48,13.48,0,0,0,2,1.33,12.46,12.46,0,0,0,2.55,1,11.32,11.32,0,0,0,2.42.39,12.94,12.94,0,0,0,2.6-.17,13.7,13.7,0,0,0,2.51-.69c.6-.22,1.1-.46,1.45-.62.65-.32,1.12-.61,1.53-.86s.63-.39,1.06-.68.88-.67,1.18-.92.62-.3.76-.17C152.12,150.06,151.07,151.85,150.12,153.05Z"/><path class="cls-2" d="M77.45,73.9h0c-.33.6-.82,1.51-1.31,2.45,0,0-.48.9-.93,1.82Q58.89,111,42.58,143.9a14.61,14.61,0,0,1-1.44,2.44,4.49,4.49,0,0,1-5.71,1.33c-2-1.14-2.31-3.18-1.44-5.23,1.37-3.24,2.92-6.4,4.46-9.57,2.06-4.22,4.16-8.42,6.24-12.63.25-.52.52-1,.74-1.59,1-2.37.38-4.33-1.85-5.46s-3.8.2-4.79,2.08c-2.23,4.24-4.36,8.54-6.49,12.83s-4.23,8.58-6.42,12.86c-1.5,3-3.47,3.83-5.84,2.75s-3.1-3.5-1.67-6.52c2.95-6.19,6-12.31,9-18.46.25-.52.57-1,.83-1.55,1.65-3.45,1.35-5.6-.89-6.63s-4.34,0-5.95,3.22c-2.57,5-5.11,10.13-7.67,15.2a16.21,16.21,0,0,1-.83,1.54,4.89,4.89,0,0,1-6.24,1.63c-2.28-1.3-2.1-3.36-1.2-5.37,1.76-3.94,3.64-7.81,5.49-11.69C21.19,93.64,32,72.47,43,51.37a73.18,73.18,0,0,1,4.59-7.51s0,0,0,0,0,0,0,0c.84-.92,5.36-5.48,11.78-4.85a13.57,13.57,0,0,1,7.07,2.92c2.42,2,4,5.11,5.24,8.22.52,1.36,1,2.72,1.37,4,0,.11.07.23.1.36s.08.25.12.39C74.48,59.11,76.78,70.2,77.45,73.9Z"/><path class="cls-2" d="M3.94,155.52a3.86,3.86,0,0,1-3.76-5.05,46.54,46.54,0,0,1,6.31-12.75,3.51,3.51,0,0,1,5-1c1.91,1.11,2.87,2.88,1.93,4.94-1.84,4.07-3.9,8.05-6,12A3.66,3.66,0,0,1,3.94,155.52Z"/><path class="cls-2" d="M18.32,158.75c-1.61,3.46-3,7.58-5.81,10.85-1.12,1.28-2.79,1.26-4.32.39-1.73-1-2.63-2.53-2.1-4.41a31.92,31.92,0,0,1,5-10.15c1.16-1.6,3.06-1.6,4.82-.88S18.27,156.53,18.32,158.75Z"/><path class="cls-2" d="M32.51,149.88A15.43,15.43,0,0,1,28.9,157a3.71,3.71,0,0,1-4.26.76c-2.14-1-3.21-3-2.37-5.2A28.55,28.55,0,0,1,25,147.07c1.14-1.77,3-2.07,4.95-1.45S32.5,147.63,32.51,149.88Z"/><path class="cls-3" d="M226.69.09c-.3-.2-.92,0-1.37.09a12.58,12.58,0,0,0-1.64.63q-36.23,15.63-72.44,31.28c-4.16,1.8-8.49,3.3-12.45,5.61.55,1.08,1.43.9,2.16,1,5.61.85,11.22,1.65,16.82,2.52,3.25.51,3.37.7,1.9,3.66Q147.6,69.18,135.45,93.44c-1.61,3.24-3.23,6.48-4.63,9.81-.83,2-.94,4.16,1.38,5.37s4,0,5.38-1.68a8.85,8.85,0,0,0,1.09-1.73q3.84-7.11,7.64-14.22a10.31,10.31,0,0,1,3.05-3.87,3.26,3.26,0,0,1,5.33,3.21,11.72,11.72,0,0,1-1.61,4.07c-4.54,8.88-9.14,17.73-13.62,26.64-1.55,3.1-.91,6,1.21,7s4.32-.3,6.1-3.27a21.38,21.38,0,0,0,1.23-2.32,75,75,0,0,1,4-7.71c3-5.15,5.64-10.61,8.84-15.68a3.26,3.26,0,0,1,4.62-1.25c2,1.06,2.25,2.82,1.62,4.8a11.54,11.54,0,0,1-.86,1.86q-3.27,6.22-6.57,12.45c-1.72,3.29-3.52,6.54-5.12,9.89-1.23,2.58-.59,4.86,1.4,5.89s4.5.22,6-2.1c.21-.33.4-.68.59-1,6.08-11.38,12.3-22.69,18.22-34.15,14.41-27.9,27.67-56.35,41.43-84.56,1.5-3.07,3-6.17,4.44-9.25C226.86,1.14,227.3.53,226.69.09Z"/><path class="cls-3" d="M139.13,149.42c2,.84,4.07.66,5.16-1.32a121.11,121.11,0,0,0,5.94-12c1.11-2.7-.89-5.21-4-5.31a3.43,3.43,0,0,0-3,1.46,75.33,75.33,0,0,0-6.1,12.59A3.47,3.47,0,0,0,139.13,149.42Z"/><path class="cls-3" d="M128.17,125.42a4.52,4.52,0,0,0,5.9-1.28,21.36,21.36,0,0,0,2.87-6.24c-.14-2.23-1.07-3.48-2.8-4.12a3.53,3.53,0,0,0-4.26.93,17.05,17.05,0,0,0-3.38,6.73A3.55,3.55,0,0,0,128.17,125.42Z"/><path class="cls-2" d="M200.51,161.56c-24.71-.77-37.07-15.13-37.07-42.94S176,76.92,200.82,76.76c26,0,38.16,15.91,36.61,47.89H184.61c.77,12.51,6.17,18.84,16.21,18.84,4.79,0,9.27-2,13.29-5.87a9,9,0,0,1,6.95-2.93H236.2C231.72,152,220.59,161.56,200.51,161.56ZM184.91,110h30.74c-1.23-10.81-6.33-16.37-15.14-16.37S186.46,99.16,184.91,110Z"/><path class="cls-2" d="M316.2,70.74,285.31,118l27.19,41.71H287.78l-14.52-26-14.67,26H233.41L260,117.85,235,78h23.63l14.06,24.71L288.4,76.15a9.4,9.4,0,0,1,9-5.41Z"/><path class="cls-2" d="M342,92.67h0a2.17,2.17,0,0,0-2.17,2.17v43.09c0,3.4,2,5.25,6,5.25H350a2.16,2.16,0,0,1,2.16,2.16v11.45a2.16,2.16,0,0,1-2,2.16,115.35,115.35,0,0,1-19.64-.32c-7.73-.77-11.43-5.56-11.28-14.68V63.38a8.71,8.71,0,0,1,8.7-8.71h11.84V75.84A2.17,2.17,0,0,0,342,78h8a2.16,2.16,0,0,1,2.16,2.16v2.32A10,10,0,0,1,342,92.67Z"/><path class="cls-2" d="M367.6,54.67h15.95l42.78,72.14V62a7.33,7.33,0,0,1,7.33-7.33h13.83v105H425.1L382.31,87.58v72.13H361.15V61.13A6.47,6.47,0,0,1,367.6,54.67Z"/><path class="cls-2" d="M479.31,54.67V70.74H458.77v-6c-.15-6.65,3.09-10,9.89-10Zm0,23.33v81.71H458.77V87.88A9.88,9.88,0,0,1,468.66,78Z"/><path class="cls-2" d="M572.14,70.74,541.24,118l27.19,41.71H543.72l-14.52-26-14.68,26H489.35l26.56-41.86L490.89,78h23.63l14.06,24.71,15.75-26.56a9.4,9.4,0,0,1,9-5.41Z"/><text class="cls-4" transform="translate(303.53 196.06)"><tspan xml:space="preserve"> Futur</tspan><tspan class="cls-5" x="86.63" y="0">e</tspan><tspan x="102.52" y="0">. Inn</tspan><tspan class="cls-6" x="167.6" y="0">ov</tspan><tspan class="cls-7" x="200.24" y="0">a</tspan><tspan class="cls-8" x="216.35" y="0">ted.</tspan></text></g></g></svg>