<svg xmlns="http://www.w3.org/2000/svg" xmlns:xlink="http://www.w3.org/1999/xlink" viewBox="0 0 276.44 207.76"><defs><style>.cls-1{fill:url(#linear-gradient);}.cls-2{fill:#051d67;}.cls-3{fill:#5ee587;}</style><linearGradient id="linear-gradient" x1="102.26" y1="39.14" x2="138.57" y2="188.71" gradientUnits="userSpaceOnUse"><stop offset="0" stop-color="#051d67"/><stop offset="1" stop-color="#5ee587"/></linearGradient></defs><g id="Layer_2" data-name="Layer 2"><g id="Layer_1-2" data-name="Layer 1"><path d="M147.49,131c.23,3.39.55,6.75,1,10.07C148.22,137.75,147.91,134.39,147.49,131Z" transform="translate(0 0)"/><path class="cls-1" d="M182.82,186.38a18.3,18.3,0,0,1-4,3.67,28.39,28.39,0,0,1-5.54,2.9,42.44,42.44,0,0,1-8.46,2.41c-16.88,3-44.41.55-54.56-15.32-5.76-9-6.18-20.44-7.67-30.69-.79-5.48-1.51-11-2.2-16.47s-1.38-11-2.12-16.56c-1.13-8.53-2.32-17.06-3.77-25.54,0-.22-.08-.47-.14-.78h0c-.82-4.5-3.62-18-5.08-23.23,0-.17-.1-.33-.14-.48S89,66,89,65.84c-.49-1.53-1-3.19-1.67-4.85-1.46-3.78-3.43-7.58-6.38-10a16.42,16.42,0,0,0-8.61-3.56C64.5,46.66,59,52.22,58,53.34c0,0,0,0,0,0l0,0h0c.77-1.15,1.47-2.11,2-2.84s.93-1.23,1.46-1.82a23,23,0,0,1,2.53-2.37,22,22,0,0,1,2.62-1.86,25.62,25.62,0,0,1,3.83-2,32,32,0,0,1,6.71-1.88A48,48,0,0,1,82.89,40a84.2,84.2,0,0,1,12.2-.05c10.94.67,22.94,2.74,32.19,9a21.55,21.55,0,0,1,4.39,3.89c2.82,3.29,4.09,7.25,5.22,11.35,8.14,29.49,9.08,60,13,90.21,1.39,10.74,3.92,22.72,13,29.74a15.5,15.5,0,0,0,2.46,1.62,15,15,0,0,0,3.11,1.23,13.48,13.48,0,0,0,2.94.47,14.79,14.79,0,0,0,3.17-.2,16.39,16.39,0,0,0,3.05-.84c.74-.27,1.34-.56,1.77-.76.79-.39,1.36-.74,1.86-1s.77-.48,1.29-.83,1.08-.82,1.44-1.12.76-.37.93-.21C185.25,182.74,184,184.92,182.82,186.38Z" transform="translate(0 0)"/><path class="cls-2" d="M94.32,90h0c-.4.73-1,1.84-1.6,3,0,0-.58,1.09-1.13,2.21q-19.87,40-39.73,80a19.34,19.34,0,0,1-1.76,3,5.48,5.48,0,0,1-7,1.62c-2.44-1.39-2.81-3.88-1.76-6.37,1.67-4,3.56-7.79,5.43-11.65,2.51-5.14,5.07-10.26,7.6-15.39.31-.63.64-1.27.91-1.93,1.23-2.89.46-5.28-2.26-6.65s-4.63.24-5.83,2.53c-2.72,5.16-5.31,10.4-7.91,15.62s-5.15,10.46-7.81,15.67c-1.83,3.6-4.23,4.66-7.12,3.35s-3.77-4.27-2-7.95c3.59-7.53,7.31-15,11-22.47.31-.64.7-1.25,1-1.89,2-4.2,1.65-6.82-1.08-8.08s-5.28,0-7.25,3.92q-4.68,9.24-9.34,18.52a19.61,19.61,0,0,1-1,1.87,6,6,0,0,1-7.6,2c-2.78-1.59-2.56-4.1-1.47-6.55,2.15-4.79,4.44-9.51,6.69-14.23C25.8,114,39,88.25,52.3,62.56a88.52,88.52,0,0,1,5.6-9.15l0,0s0,0,0,0c1-1.12,6.53-6.68,14.34-5.91A16.42,16.42,0,0,1,80.92,51c3,2.42,4.92,6.22,6.38,10,.64,1.66,1.18,3.32,1.67,4.85,0,.14.09.28.13.44s.09.31.14.48C90.7,72,93.5,85.49,94.32,90Z" transform="translate(0 0)"/><path class="cls-2" d="M4.8,189.39a4.7,4.7,0,0,1-4.59-6.15c1.59-5.61,4.51-10.69,7.7-15.53,1.34-2.05,3.75-2.5,6-1.17s3.5,3.5,2.36,6c-2.25,5-4.75,9.81-7.3,14.62A4.45,4.45,0,0,1,4.8,189.39Z" transform="translate(0 0)"/><path class="cls-2" d="M22.31,193.32c-2,4.22-3.59,9.24-7.07,13.22-1.37,1.56-3.4,1.53-5.27.47-2.1-1.19-3.2-3.08-2.55-5.36a38.89,38.89,0,0,1,6.12-12.37c1.42-1.94,3.72-1.94,5.87-1.07C21.38,189,22.25,190.62,22.31,193.32Z" transform="translate(0 0)"/><path class="cls-2" d="M39.59,182.52a18.71,18.71,0,0,1-4.4,8.65,4.52,4.52,0,0,1-5.18.93c-2.61-1.21-3.91-3.65-2.89-6.33a34.91,34.91,0,0,1,3.33-6.67c1.4-2.15,3.71-2.52,6-1.76C38.65,178.05,39.58,179.79,39.59,182.52Z" transform="translate(0 0)"/><path class="cls-3" d="M276.06.12c-.36-.26-1.12,0-1.66.1a14.24,14.24,0,0,0-2,.77q-44.11,19-88.22,38.08c-5.07,2.2-10.34,4-15.16,6.84.67,1.32,1.74,1.1,2.63,1.23,6.83,1,13.66,2,20.48,3.07,4,.62,4.1.85,2.31,4.45q-14.7,29.6-29.48,59.13c-2,3.95-3.94,7.89-5.64,11.95-1,2.42-1.16,5.07,1.68,6.54s4.8,0,6.55-2.05a11.17,11.17,0,0,0,1.32-2.11q4.68-8.64,9.3-17.31a12.74,12.74,0,0,1,3.72-4.72,4.06,4.06,0,0,1,4.68-.44c1.67,1,2,2.62,1.81,4.35a14.15,14.15,0,0,1-2,5c-5.53,10.81-11.13,21.59-16.58,32.44-1.89,3.77-1.11,7.34,1.46,8.57,2.42,1.17,5.27-.36,7.43-4a24.52,24.52,0,0,0,1.5-2.82,92.82,92.82,0,0,1,4.86-9.4c3.69-6.26,6.87-12.91,10.77-19.09a4,4,0,0,1,5.62-1.52c2.37,1.29,2.75,3.43,2,5.84a14.11,14.11,0,0,1-1.05,2.27c-2.66,5-5.34,10.1-8,15.16-2.1,4-4.28,8-6.23,12-1.51,3.14-.72,5.91,1.7,7.17s5.48.27,7.32-2.56c.26-.4.48-.82.71-1.24,7.41-13.86,15-27.63,22.2-41.59,17.54-34,33.69-68.62,50.45-103,1.83-3.74,3.61-7.5,5.4-11.26C276.27,1.39,276.81.64,276.06.12Z" transform="translate(0 0)"/><path class="cls-3" d="M169.44,182c2.45,1,4.94.81,6.28-1.61A146.53,146.53,0,0,0,183,165.69c1.35-3.29-1.08-6.35-4.91-6.47a4.2,4.2,0,0,0-3.66,1.79,92.28,92.28,0,0,0-7.44,15.33A4.23,4.23,0,0,0,169.44,182Z" transform="translate(0 0)"/><path class="cls-3" d="M156.09,152.74a5.51,5.51,0,0,0,7.18-1.56,26.4,26.4,0,0,0,3.5-7.6c-.18-2.72-1.3-4.24-3.42-5-2-.72-3.81-.54-5.18,1.13a20.56,20.56,0,0,0-4.12,8.18A4.34,4.34,0,0,0,156.09,152.74Z" transform="translate(0 0)"/></g></g></svg>